<svg width="565" height="469" xmlns="http://www.w3.org/2000/svg" fill="none" viewBox="0 0 565 469">
  <path fill="#473080" d="M418 436v1-1Zm65 0 1 1-1-1Zm-177-49 1 12 10-7-11-5Zm1 3 1 2 2-1-1-2-2 1Zm3 4 1 1 1-1-1-1-1 1Zm2 3 1 2 2-2-1-1-2 1Zm3 3 1 2 1-2-1-1-1 1Zm2 3 1 2 2-1-1-2-2 1Zm3 3 1 2 1-1-1-2-1 1Zm2 3 2 2 1-1-1-2-2 1Zm3 3 1 2 2-1-2-2-1 1Zm3 3 1 2 1-1-1-2-1 1Zm2 3 2 2 1-2-1-1-2 1Zm3 3 2 2 1-2-1-1-2 1Zm3 3 1 2 2-2-2-1-1 1Zm3 3 1 1 2-1-2-2-1 2Zm3 3 1 1 2-1-2-2-1 2Zm3 2 1 2 2-2-2-1-1 1Zm3 3 1 1 2-1-2-2-1 2Zm3 3 2 1 1-2-2-1-1 2Zm3 2 2 1 1-1-2-2-1 2Zm3 3 2 1 1-2-1-1-2 2Zm4 2 1 1 1-2-1-1-1 2Zm3 2 2 1 1-1-2-1-1 1Zm3 2 2 1 1-1-2-1-1 1Zm4 2 1 2 1-2-1-1-1 1Zm3 3 2 1 1-2-2-1-1 2Zm4 1 2 1v-1l-1-1-1 1Zm3 2 2 1 1-2-2-1-1 2Zm4 2 2 1 1-2-2-1-1 2Zm4 2h2v-2h-2v2Zm3 1 2 1 1-2-2-1-1 2Zm4 1 2 1 1-2-2-1-1 2Zm4 2h2l1-2h-2l-1 2Zm4 1h2v-2h-1l-1 2Zm4 0 2 1v-2h-2v1Zm4 1h2v-2h-2v2Zm4 1h2v-2h-2v2Zm4 0h2v-2h-2v2Zm4 0h2v-2h-2v2Zm4 0h2v-2h-2v2Zm4 0 2-1v-2l-2 1v2Zm4-1h2v-2h-2v2Zm4-1h2v-2h-2v2Zm4-1h2l-1-2h-1v2Zm4-1 2-1-1-2-2 1 1 2Zm4-2h2l-1-2-2 1 1 1Zm3-1 2-1-1-2-1 1v2Zm4-2 2-1-1-2-2 1 1 2Zm4-2 1-1-1-2-2 1 2 2Zm3-3 2-1-2-1-1 1 1 1Zm3-2 2-1-2-2-1 1 1 2Zm3-3 2-1-2-1-1 1 1 1Zm3-2 2-2-2-1-1 1 1 2Zm3-3 2-2-2-1-1 1 1 2Zm3-3 1-2-1-1-2 1 2 2Zm3-3v-1l-1-1h-1l2 2Zm0-1 1-1-2-1v1l1 1Zm2-3 1-1-1-1-1 1 1 1Zm2-3 2-2-2-1-1 2 1 1Zm3-3v-2l-1-1-1 2 2 1Zm1-4 1-2-2-1-1 2 2 1Zm1-4 1-3h-2l-1 2 2 1Zm0-5v-2l-2 1v2l2-1Zm-1-4-2-2-1 2 1 1 2-1Zm-3-3-2-1-1 2 1 1 2-2Zm-4-2-2-1-1 2 2 1 1-2Zm-4-1-2-1-1 2 2 1 1-2Zm-4-1h-2v2h2v-2Zm-4-1h-2v2h2v-2Zm-4 0h-2v2h2v-2Zm-4 0h-3l1 2h2v-2Zm-5 1h-2l1 2h2l-1-2Zm-4 0h-2l1 2h2l-1-2Zm-4 1h-2l1 2 2-1-1-1Zm-4 0-2 1 1 2 2-1-1-2Zm-4 1h-2l1 2h2l-1-2Zm-4 1h-2l1 2h2l-1-2Zm-4 1-2 1 1 1h2l-1-2Zm-4 1-2 1 1 2 2-1-1-2Zm-3 1-2 1v2l2-1v-2Zm-4 2-2 1 1 2 2-1-1-2Zm-4 2-2 1 1 1 2-1-1-1Zm-4 2-1 1 1 1 1-1-1-1Zm-3 2-2 1 1 2 2-2-1-1Zm-3 2-2 2 2 1 1-1-1-2Zm-3 4-1 2h2l1-1-2-1Zm0 5v2l2-1-1-2-1 1Zm2 3 2 2 1-2-2-1-1 1Zm3 3 2 1 1-2-2-1-1 2Zm4 2h1l1-2h-1l-1 2Zm1 0 1 1 1-2-1-1-1 2Zm3 1 2 1v-2l-1-1-1 2Zm4 1 2 1v-2l-2-1v2Zm4 1h2v-2h-2v2Zm4 0h2v-2h-2v2Zm4 0 2-1v-2l-2 1v2Zm4-2h2l-1-2-2 1 1 1Zm4-1 2-1-2-2-1 1 1 2Zm3-3 2-1-2-1-1 1 1 1Zm3-2 2-2-2-1-1 1 1 2Zm3-3 1-2-1-1-2 1 2 2Zm2-4 2-1-2-1-1 1 1 1Zm3-3 1-2-2-1-1 2 2 1Zm1-4 1-1-1-1-1 2h1Zm2-3 1-2-2-1-1 2 2 1Zm2-4v-2h-1l-1 1 2 1Zm1-4 1-2h-2l-1 2h2Zm1-3 1-2-2-1-1 2 2 1Zm1-4 1-2-2-1-1 2 2 1Zm1-4 1-2-2-1-1 2 2 1Zm1-4 1-2h-2l-1 2h2Zm1-4v-2h-2v2h2Zm1-4v-2h-2v2h2Zm0-4 1-2h-2l-1 2h2Zm1-4v-2h-2v2h2Zm0-4v-2h-2v2h2Zm1-4v-2h-2v2h2Zm0-4v-2h-2v2h2Zm0-4v-1h-2v1h2Z"/>
  <path fill="#AEA6C6" d="M267 368h-1L22 350c-3 0-5-1-7-3s-3-5-3-7L36 19c0-3 2-5 4-7s4-3 7-2l244 18c2 0 5 1 6 3 2 2 3 4 3 7l-24 321a10 10 0 0 1-9 9ZM46 12l-5 2-2 5-24 321c0 2 0 4 2 5 1 2 3 3 5 3l244 18c2 0 4 0 5-2 2-1 3-3 3-5l23-321c1-2 0-4-1-5-2-2-3-3-5-3L47 12h-1Z"/>
  <path fill="#D7D4E3" d="M280 427 45 360c-5-1-8-6-6-10l87-311c1-4 6-7 11-5l235 66c5 1 8 6 6 11l-87 310c-1 4-6 7-11 6Z"/>
  <path fill="url(#a)" d="m295 141-114-32c-3-1-5-5-5-8 1-3 5-5 8-4l115 32c3 1 5 4 4 8-1 3-4 5-8 4Z"/>
  <path fill="url(#b)" d="m318 186-180-50c-3-1-5-5-5-8 1-4 5-6 8-5l181 51c3 1 5 4 4 8-1 3-5 5-8 4Z"/>
  <path fill="url(#c)" d="m310 215-180-51c-3-1-5-5-5-8 1-3 5-5 8-4l181 50c3 1 5 5 4 8-1 4-5 6-8 5Z"/>
  <path fill="url(#d)" d="m302 243-180-51c-3-1-5-4-5-8 1-3 5-5 8-4l181 51c3 1 5 4 4 8-1 3-5 5-8 4Z"/>
  <path fill="url(#e)" d="m294 271-180-50c-3-1-5-5-5-8 1-4 5-6 8-5l181 51c3 1 5 5 4 8s-5 5-8 4Z"/>
  <path fill="url(#f)" d="m286 300-180-51c-3-1-5-4-5-8 1-3 5-5 8-4l181 51c3 0 5 4 4 7-1 4-5 6-8 5Z"/>
  <path fill="url(#g)" d="M278 328 98 278c-3-1-5-5-5-8 1-4 5-6 8-5l181 51c3 1 5 4 4 8-1 3-5 5-8 4Z"/>
  <path fill="url(#h)" d="M270 357 90 306c-3-1-5-5-5-8 1-3 5-5 8-4l181 50c3 1 5 5 4 8-1 4-5 6-8 5Z"/>
  <path fill="url(#i)" d="M262 385 82 334c-3-1-5-4-5-8 1-3 5-5 8-4l181 51c3 1 5 4 4 8-1 3-5 5-8 4Z"/>
  <path fill="#FCFBFE" d="M257 38 59 17c-7 0-14 5-15 13L12 340c-1 7 4 14 12 15l240 25c8 1 15-5 16-12l28-267-51-63Z"/>
  <path fill="#E8E6F0" d="M252 81c0 7 5 14 13 15l43 5-51-63-5 43Z"/>
  <path fill="#C1BBD4" d="m263 96 44 12 1-7-45-5Z"/>
  <path fill="url(#j)" d="m131 64-60-6-1-1c1-1 0-7 2-6l59 5c2 0 1 5 1 6l-1 2Z"/>
  <path fill="url(#k)" d="m127 100-59-5-1-2c1-1 0-6 2-6l59 5c2 0 0 5 0 6l-1 2Z"/>
  <path fill="url(#l)" d="m200 106-59-5-1-2 1-6 60 5v7l-1 1Z"/>
  <path fill="url(#m)" d="m203 88-95-8c-2 0 0-5 0-6 0-5 95 8 96 6 2 1 0 6 1 7l-2 1Z"/>
  <path fill="url(#n)" d="m230 72-46-4-1-1c0-2 0-7 2-6l45 4c2 0 1 5 1 6l-1 1Z"/>
  <path fill="#F9A74E" d="M171 67c-1-1-29-1-28-4 1-1 0-6 2-6l26 2c2 0 1 5 1 7l-1 1Z"/>
  <path fill="#FEC632" d="M96 79c0-1-28-1-27-4l1-6 27 2c2 0 0 5 0 6l-1 2Z"/>
  <path fill="url(#o)" d="m111 117-44-4-1-2 1-6 45 4v6l-1 2Z"/>
  <path fill="#FFDE39" d="m152 120-29-2v-7l1-1 28 2c2 0 1 5 1 7l-1 1Z"/>
  <path fill="url(#p)" d="m146 146-81-7-1-2c0-1-1-6 1-6l82 7c2 0 1 5 1 7l-2 1Z"/>
  <path fill="url(#q)" d="m143 182-81-7-2-2c1-1 0-6 2-6l82 8c2 0 0 5 1 6l-2 1Z"/>
  <path fill="url(#r)" d="m243 191-81-7-2-2c1-1 0-6 2-6l82 7c2 0 0 5 1 7l-2 1Z"/>
  <path fill="url(#s)" d="m247 173-131-11c-2 0-1-5-1-7 0-4 132 12 133 10 2 0 0 5 1 7l-2 1Z"/>
  <path fill="url(#t)" d="m283 158-63-6c-1 0-2 0-1-1 0-1-1-7 1-6l63 5c3 0 1 5 1 7l-1 1Z"/>
  <path fill="#F9A74E" d="M202 151c-1-1-40-2-38-5 0-1-1-6 1-6l37 3c2 0 1 5 1 7l-1 1Z"/>
  <path fill="#FEC632" d="M100 160c-1-1-40-2-38-5 0-1 0-6 2-6l37 4c2 0 0 5 0 6l-1 1Z"/>
  <path fill="url(#u)" d="m121 198-61-5-1-1c0-2-1-7 2-7l61 6c2 0 0 5 1 6 0 1-1 2-2 1Z"/>
  <path fill="#FFDE39" d="m177 203-39-3c-2 0 0-5 0-6l1-2 39 4c2 0 0 5 1 6l-2 1Z"/>
  <path fill="url(#v)" d="m138 226-81-7c-1 0-2 0-1-1 0-1-1-7 1-6l82 7c2 0 1 5 1 6s-1 2-2 1Z"/>
  <path fill="url(#w)" d="m135 263-81-7-2-2c1-1 0-6 2-6l82 7c2 0 0 5 1 6l-2 2Z"/>
  <path fill="url(#x)" d="m235 271-81-7-2-1c1-2 0-7 2-6l82 7c2 0 0 5 1 6l-2 1Z"/>
  <path fill="url(#y)" d="m239 254-131-12c-2 0-1-5-1-6 0-4 131 11 133 10 2 0 0 5 1 6l-2 2Z"/>
  <path fill="url(#z)" d="m275 238-63-5-2-2c1-1 0-6 2-6l63 6c2 0 1 5 1 6l-1 1Z"/>
  <path fill="#F9A74E" d="M194 231c-1 0-40-1-38-4 0-2-1-7 1-7l37 4c2 0 1 5 1 6l-1 1Z"/>
  <path fill="#FEC632" d="M92 241c-1-1-40-2-38-5 0-1 0-7 2-6l37 3c2 0 0 5 0 6l-1 2Z"/>
  <path fill="url(#A)" d="m113 279-61-5-1-2c0-1-1-6 2-6l61 5c2 0 0 5 1 7l-2 1Z"/>
  <path fill="#FFDE39" d="m169 284-39-4c-2 0 0-5 0-6l1-1 39 3c2 0 0 5 0 6l-1 2Z"/>
  <path fill="url(#B)" d="m103 308-53-5-1-1c0-2 0-7 1-6l53 4c2 0 1 5 1 7l-1 1Z"/>
  <path fill="url(#C)" d="m168 332-86-8v-6c0-4 86 7 87 6v6l-1 2Z"/>
  <path fill="url(#D)" d="m192 316-41-4-1-1 1-7 41 4c2 0 0 5 1 6l-1 2Z"/>
  <path fill="#F9A74E" d="M139 311c-1-1-26 0-25-4l1-6 24 2c2 0 1 5 1 7l-1 1Z"/>
  <path fill="#FEC632" d="M72 323s-26 0-25-3c1-1 0-7 2-6l24 2v6l-1 1Z"/>
  <g clip-path="url(#E)">
    <path fill="#382673" d="m230 327 3-2 2-3v-1l1 1 2 3 3 2h1l-1 1-3 1-2 4-1 1v-1l-2-4-3-1-1-1h1Zm-5 6 8 4v2l-8 3-3 8h-2l-4-8-7-3-1-1 1-1 7-4 4-7 1-1 1 1 3 7Zm10 10v-1l1 1 2 3 3 2h1l-1 1-3 1-2 4-1 1v-1l-2-4-3-1-1-1h1l3-2 2-3Z"/>
  </g>
  <path fill="#473080" d="M379 307c0 7 1 17 6 23 3 4 6 6 11 6 19 2 30-22 31-23a4 4 0 0 0-7-3s-9 20-24 19c-2 0-4-1-5-3-6-7-5-22-5-27a4 4 0 1 0-7-1v9Z"/>
  <path fill="#473080" d="M375 285v7c0 4 3 7 7 7l2 1a7 7 0 0 0 8-8v-11a4 4 0 0 0-7 0v11h-3v-7a4 4 0 1 0-7 0ZM535 315c0 7-1 17-7 23-3 3-7 5-12 6-22 2-35-22-35-23-1-2 0-4 2-5s4 0 5 2c1 0 11 20 27 18 3 0 5-1 7-3 6-7 5-21 5-27-1-2 1-3 3-4 3 0 5 1 5 3v10Z"/>
  <path fill="#473080" d="M541 292v7c0 4-3 7-8 7h-2c-3 1-5 0-7-2-2-1-2-3-2-5v-11c0-2 2-4 4-4s4 2 4 4v11h3v-7c0-2 2-4 4-4 3 0 4 2 4 4Z"/>
  <path fill="#fff" d="M511 263h-8v-21h8c2 0 3 1 3 3v15c0 2-1 3-3 3Z"/>
  <path fill="#382673" d="M506 264h-3v-23h3c5 0 9 4 9 9v5c0 5-4 9-9 9Zm-2-1h2c4 0 8-4 8-8v-5c0-4-4-8-8-8h-2v21Z"/>
  <path fill="#fff" d="M398 263h8v-21h-8c-2 0-3 1-3 3v15c0 2 1 3 3 3Z"/>
  <path fill="#382673" d="M406 264h-3c-5 0-9-4-9-9v-5c0-5 4-9 9-9h3v23Zm-3-22c-4 0-8 4-8 8v5c0 4 4 8 8 8h2v-21h-2Z"/>
  <path fill="#fff" d="M402 251c0-23 24-47 52-47 29 0 53 24 53 47 0 24-24 37-53 37-28 0-52-13-52-37Z"/>
  <path fill="#382673" d="M454 289c-14 0-27-4-37-10-10-7-15-16-15-28 0-11 5-23 15-32 10-10 24-15 37-15 14 0 27 5 38 15 9 9 15 21 15 32 0 12-5 21-15 28-10 6-23 10-38 10Zm0-84c-29 0-51 24-51 46 0 11 5 21 15 27 9 6 22 10 36 10 15 0 28-4 37-10 10-6 15-16 15-27 0-22-22-46-52-46Z"/>
  <path fill="#fff" d="M468 295h-27c-11 0-20 9-20 21 0 7 0 15 2 22l4 19a28 28 0 0 0 55 0l4-19c2-7 2-15 2-22 0-12-9-21-20-21Z"/>
  <path fill="#382673" d="M454 381c-13 0-25-10-28-23l-4-19-2-23c0-12 10-21 21-21h27c11 0 21 9 21 21l-2 23-4 19c-3 13-15 23-29 23Zm-13-85c-11 0-20 9-20 20l2 22 4 19a28 28 0 0 0 55 0l4-19 2-22c0-11-9-20-20-20h-27Z"/>
  <path fill="#FEC632" d="M458 341h-7c-6 0-11-5-11-11v-35h29v35c0 6-5 11-11 11Z"/>
  <path fill="#000" d="M469 296h-29v-1h29v1Z"/>
  <path fill="#473080" d="M485 243h-50c-5 0-9 5-9 11v6c0 5 2 9 6 10 14 2 43 2 57 0 4-1 6-5 6-10v-6c0-6-4-11-10-11Z"/>
  <path fill="#FCFBFE" d="M445 257c0 2-1 3-3 3-1 0-3-1-3-3s2-4 3-4c2 0 3 2 3 4ZM476 260c2 0 3-1 3-3s-1-4-3-4-3 2-3 4 1 3 3 3Z"/>
  <path fill="#FEC632" d="M370 280c8 0 14-6 14-14s-6-14-14-14-14 6-14 14 6 14 14 14Z"/>
  <g clip-path="url(#F)">
    <path fill="#fff" d="M371 260h2l1-2 1 2h2v1l-2 1-1 2-1-2-2-1v-1Zm-2 4 4 2v1l-4 1-2 4h-1l-2-4-4-1v-1l4-2 2-4h1l2 4Zm5 4 1 2 2 1v1l-2 1-1 1v1-1l-1-1-2-1v-1l2-1 1-2Z"/>
  </g>
  <path fill="#C1BBD4" d="M340 301a2 2 0 1 0 0-5 2 2 0 0 0 0 5ZM562 226a2 2 0 1 0 0-4 2 2 0 0 0 0 4ZM381 198a2 2 0 1 0-4-1 2 2 0 0 0 4 1Z"/>
  <defs>
    <linearGradient id="a" x1="176.1" x2="302" y1="103.2" y2="110.6" gradientUnits="userSpaceOnUse">
      <stop stop-color="#D7D4E3"/>
      <stop offset="1" stop-color="#fff"/>
    </linearGradient>
    <linearGradient id="b" x1="133" x2="324" y1="132.6" y2="144.6" gradientUnits="userSpaceOnUse">
      <stop stop-color="#D7D4E3"/>
      <stop offset="1" stop-color="#fff"/>
    </linearGradient>
    <linearGradient id="c" x1="125" x2="316" y1="161" y2="173" gradientUnits="userSpaceOnUse">
      <stop stop-color="#D7D4E3"/>
      <stop offset="1" stop-color="#fff"/>
    </linearGradient>
    <linearGradient id="d" x1="117" x2="308" y1="189.4" y2="201.4" gradientUnits="userSpaceOnUse">
      <stop stop-color="#D7D4E3"/>
      <stop offset="1" stop-color="#fff"/>
    </linearGradient>
    <linearGradient id="e" x1="109" x2="300" y1="217.7" y2="229.8" gradientUnits="userSpaceOnUse">
      <stop stop-color="#D7D4E3"/>
      <stop offset="1" stop-color="#fff"/>
    </linearGradient>
    <linearGradient id="f" x1="101" x2="292" y1="246.1" y2="258.2" gradientUnits="userSpaceOnUse">
      <stop stop-color="#D7D4E3"/>
      <stop offset="1" stop-color="#fff"/>
    </linearGradient>
    <linearGradient id="g" x1="93" x2="284" y1="274.5" y2="286.6" gradientUnits="userSpaceOnUse">
      <stop stop-color="#D7D4E3"/>
      <stop offset="1" stop-color="#fff"/>
    </linearGradient>
    <linearGradient id="h" x1="85" x2="276" y1="302.9" y2="315" gradientUnits="userSpaceOnUse">
      <stop stop-color="#D7D4E3"/>
      <stop offset="1" stop-color="#fff"/>
    </linearGradient>
    <linearGradient id="i" x1="77" x2="268" y1="331.3" y2="343.4" gradientUnits="userSpaceOnUse">
      <stop stop-color="#D7D4E3"/>
      <stop offset="1" stop-color="#fff"/>
    </linearGradient>
    <linearGradient id="j" x1="70.8" x2="129.2" y1="51.8" y2="66.8" gradientUnits="userSpaceOnUse">
      <stop stop-color="#D7D4E3"/>
      <stop offset="1" stop-color="#fff"/>
    </linearGradient>
    <linearGradient id="k" x1="67.6" x2="126" y1="87.9" y2="103" gradientUnits="userSpaceOnUse">
      <stop stop-color="#D7D4E3"/>
      <stop offset="1" stop-color="#fff"/>
    </linearGradient>
    <linearGradient id="l" x1="140.3" x2="198.7" y1="94.3" y2="109.3" gradientUnits="userSpaceOnUse">
      <stop stop-color="#D7D4E3"/>
      <stop offset="1" stop-color="#fff"/>
    </linearGradient>
    <linearGradient id="m" x1="107.5" x2="196.7" y1="72.8" y2="103.5" gradientUnits="userSpaceOnUse">
      <stop stop-color="#D7D4E3"/>
      <stop offset="1" stop-color="#fff"/>
    </linearGradient>
    <linearGradient id="n" x1="183.4" x2="229.5" y1="61.6" y2="71.8" gradientUnits="userSpaceOnUse">
      <stop stop-color="#D7D4E3"/>
      <stop offset="1" stop-color="#fff"/>
    </linearGradient>
    <linearGradient id="o" x1="66.1" x2="111" y1="106" y2="115.7" gradientUnits="userSpaceOnUse">
      <stop stop-color="#D7D4E3"/>
      <stop offset="1" stop-color="#fff"/>
    </linearGradient>
    <linearGradient id="p" x1="63.9" x2="141.9" y1="132.3" y2="157.4" gradientUnits="userSpaceOnUse">
      <stop stop-color="#D7D4E3"/>
      <stop offset="1" stop-color="#fff"/>
    </linearGradient>
    <linearGradient id="q" x1="60.7" x2="138.7" y1="168.4" y2="193.6" gradientUnits="userSpaceOnUse">
      <stop stop-color="#D7D4E3"/>
      <stop offset="1" stop-color="#fff"/>
    </linearGradient>
    <linearGradient id="r" x1="160.8" x2="238.8" y1="177.2" y2="202.3" gradientUnits="userSpaceOnUse">
      <stop stop-color="#D7D4E3"/>
      <stop offset="1" stop-color="#fff"/>
    </linearGradient>
    <linearGradient id="s" x1="115" x2="230.6" y1="154.6" y2="205.8" gradientUnits="userSpaceOnUse">
      <stop stop-color="#D7D4E3"/>
      <stop offset="1" stop-color="#fff"/>
    </linearGradient>
    <linearGradient id="t" x1="218.8" x2="281.1" y1="145.8" y2="162.6" gradientUnits="userSpaceOnUse">
      <stop stop-color="#D7D4E3"/>
      <stop offset="1" stop-color="#fff"/>
    </linearGradient>
    <linearGradient id="u" x1="59.2" x2="119.8" y1="186.5" y2="202.5" gradientUnits="userSpaceOnUse">
      <stop stop-color="#D7D4E3"/>
      <stop offset="1" stop-color="#fff"/>
    </linearGradient>
    <linearGradient id="v" x1="55.8" x2="133.8" y1="212.7" y2="237.9" gradientUnits="userSpaceOnUse">
      <stop stop-color="#D7D4E3"/>
      <stop offset="1" stop-color="#fff"/>
    </linearGradient>
    <linearGradient id="w" x1="52.7" x2="130.7" y1="248.9" y2="274" gradientUnits="userSpaceOnUse">
      <stop stop-color="#D7D4E3"/>
      <stop offset="1" stop-color="#fff"/>
    </linearGradient>
    <linearGradient id="x" x1="152.7" x2="230.7" y1="257.6" y2="282.8" gradientUnits="userSpaceOnUse">
      <stop stop-color="#D7D4E3"/>
      <stop offset="1" stop-color="#fff"/>
    </linearGradient>
    <linearGradient id="y" x1="107" x2="222.6" y1="235" y2="286.3" gradientUnits="userSpaceOnUse">
      <stop stop-color="#D7D4E3"/>
      <stop offset="1" stop-color="#fff"/>
    </linearGradient>
    <linearGradient id="z" x1="210.8" x2="273.1" y1="226.3" y2="243.1" gradientUnits="userSpaceOnUse">
      <stop stop-color="#D7D4E3"/>
      <stop offset="1" stop-color="#fff"/>
    </linearGradient>
    <linearGradient id="A" x1="51.1" x2="111.8" y1="266.9" y2="283" gradientUnits="userSpaceOnUse">
      <stop stop-color="#D7D4E3"/>
      <stop offset="1" stop-color="#fff"/>
    </linearGradient>
    <linearGradient id="B" x1="49.3" x2="101.9" y1="296.6" y2="309.3" gradientUnits="userSpaceOnUse">
      <stop stop-color="#D7D4E3"/>
      <stop offset="1" stop-color="#fff"/>
    </linearGradient>
    <linearGradient id="C" x1="82" x2="163" y1="317.3" y2="343" gradientUnits="userSpaceOnUse">
      <stop stop-color="#D7D4E3"/>
      <stop offset="1" stop-color="#fff"/>
    </linearGradient>
    <linearGradient id="D" x1="150.2" x2="191.7" y1="305.5" y2="314" gradientUnits="userSpaceOnUse">
      <stop stop-color="#D7D4E3"/>
      <stop offset="1" stop-color="#fff"/>
    </linearGradient>
    <clipPath id="E">
      <path fill="#fff" d="M0 0h33v36H0z" transform="translate(208 319)"/>
    </clipPath>
    <clipPath id="F">
      <path fill="#fff" d="M0 0h17v18H0z" transform="translate(360 257)"/>
    </clipPath>
  </defs>
</svg>
